<svg width="89" height="86" viewBox="0 0 89 86" fill="none" xmlns="http://www.w3.org/2000/svg">
<path d="M68.9735 39.2642C68.9735 39.2642 77.7258 40.8692 76.4065 49.6229C75.0902 58.3816 69.6471 61.1034 65.1063 61.5735C60.5611 62.0359 55.4352 63.0678 52.7348 70.3757C50.0334 77.6875 41.0032 75.5132 37.1043 72.5923C33.2006 69.681 32.7691 63.1497 35.9397 60.671C39.1099 58.1857 40.8729 54.8263 39.8382 50.5538C38.7941 46.2766 41.129 42.9263 43.4239 41.564C45.7144 40.1941 50.2025 39.8563 53.9088 41.497C60.6437 44.4806 62.1725 39.1286 68.9735 39.2642Z" fill="#6A4FA4"/>
<path d="M35.7449 25.8662C39.0516 30.6119 44.7981 32.3302 48.5925 29.6916C52.3788 27.0508 52.771 21.0587 49.4534 16.3057C46.1467 11.5599 40.395 9.84445 36.6083 12.4787C32.8205 15.1169 32.4301 21.1182 35.7449 25.8662Z" fill="#6A4FA4"/>
<path d="M17.9531 39.1083C21.811 43.7564 27.8247 45.144 31.3778 42.1933C34.9299 39.2466 34.6767 33.0773 30.8018 28.4288C26.9425 23.7781 20.9339 22.3876 17.3807 25.3383C13.8331 28.2926 14.0844 34.4529 17.9531 39.1083Z" fill="#6A4FA4"/>
<path d="M15.4411 59.9114C18.8913 64.0652 23.9665 65.5434 26.7823 63.2084C29.5891 60.8753 29.0728 55.6079 25.6236 51.45C22.1723 47.3002 17.0987 45.8245 14.2799 48.1544C11.468 50.4905 11.9832 55.7619 15.4411 59.9114Z" fill="#6A4FA4"/>
<path d="M58.4241 26.9105C60.9295 31.0736 65.512 32.9448 68.64 31.0506C71.7754 29.1691 72.273 24.2529 69.7627 20.0756C67.2468 15.9117 62.6727 14.0493 59.5413 15.9318C56.4154 17.818 55.9073 22.7335 58.4241 26.9105Z" fill="#6A4FA4"/>
</svg>
