<svg width="43" height="43" viewBox="0 0 43 43" fill="none" xmlns="http://www.w3.org/2000/svg">
<path fill-rule="evenodd" clip-rule="evenodd" d="M30.6789 41.9912C30.845 41.9786 31.0112 41.9688 31.1765 41.9526C32.1059 41.8576 32.9588 41.5266 33.7155 40.9303C35.0208 39.8989 35.8556 38.5277 36.1879 36.8031C36.3091 36.1579 36.3497 35.4978 36.3088 34.8408C36.2642 34.0708 36.1265 33.3106 35.8992 32.5799C35.5381 31.4069 34.9944 30.3423 34.306 29.3612C33.7879 28.6252 33.201 27.9499 32.555 27.3461C31.9539 26.7743 31.3953 26.1514 30.8845 25.4833C30.2364 24.6448 29.6508 23.7561 29.071 22.861C28.5594 22.07 28.056 21.2737 27.5132 20.5096C27.1098 19.9287 26.6686 19.3803 26.1931 18.8684C25.5927 18.2343 24.9298 17.698 24.1484 17.3491C23.5675 17.0886 22.9473 16.9481 22.3193 16.9348C21.6054 16.9142 20.8922 16.9965 20.1981 17.1796C19.1501 17.4594 18.1888 18.0371 17.4124 18.854C16.8679 19.419 16.4073 20.0594 15.9796 20.7284C15.5248 21.4387 15.1078 22.175 14.6776 22.9023C14.1924 23.7211 13.6907 24.5273 13.1314 25.2896C12.5749 26.0484 11.9578 26.7519 11.2874 27.3918C10.4752 28.1611 9.75387 29.0374 9.1399 30.0007C8.61308 30.8244 8.19294 31.7234 7.89138 32.6723C7.6563 33.4117 7.51678 34.1832 7.47685 34.9646C7.41928 36.1591 7.60845 37.3017 8.10605 38.3761C8.56663 39.3716 9.23284 40.1724 10.0685 40.8065C10.6837 41.2737 11.3474 41.6289 12.0778 41.8262C12.3364 41.8975 12.5995 41.9475 12.8649 41.9759C12.9019 41.9795 12.9373 41.9867 12.9735 41.9939C13.008 42.0145 13.0458 41.9984 13.0828 42.0029C13.1133 42.0082 13.1445 41.9939 13.1733 42.0136H13.8543C13.8815 41.993 13.9119 42.0073 13.9407 42.0038H14.0846C14.6653 41.9831 15.2287 41.8513 15.7913 41.7087C16.7429 41.4666 17.6764 41.1482 18.6239 40.8854C19.3889 40.6677 20.1665 40.5065 20.9515 40.4029C21.4956 40.3401 22.0432 40.3215 22.5899 40.3473C23.0258 40.3635 23.46 40.437 23.8894 40.524C24.7365 40.698 25.5664 40.9455 26.3971 41.193C27.2755 41.4567 28.1539 41.7177 29.0537 41.8782C29.4197 41.9428 29.7857 41.9984 30.1583 41.9948C30.2348 41.993 30.3104 42.0055 30.3878 42.0038C30.4864 41.9975 30.5827 42.0163 30.6797 41.9921M13.893 0.908561C12.6691 1.06909 11.7332 1.74799 11.0184 2.8179C10.5291 3.5515 10.2206 4.37479 10.0298 5.25457C9.86973 6.0098 9.80198 6.78481 9.82831 7.55941C9.86866 8.97397 10.1826 10.3633 10.7495 11.6364C11.1349 12.5263 11.6599 13.336 12.3007 14.0291C12.8789 14.6461 13.5327 15.1394 14.296 15.447C14.8323 15.6622 15.3833 15.7698 15.9541 15.7322C16.9427 15.6703 17.7825 15.2416 18.4873 14.4937C19.0894 13.8551 19.499 13.0821 19.7827 12.2274C19.978 11.6313 20.1078 11.012 20.1693 10.3826C20.2145 9.95221 20.231 9.51881 20.2187 9.08581C20.1899 8.06522 20.0213 7.07154 19.7169 6.10656C19.4036 5.08331 18.9278 4.12803 18.3113 3.28425C17.7849 2.57217 17.1706 1.96951 16.4336 1.52468C15.8978 1.19589 15.3073 0.98675 14.6965 0.909458C14.6776 0.8978 14.6571 0.903181 14.6382 0.901387H14.5798C14.551 0.8978 14.5214 0.912149 14.4959 0.890625H14.0945C14.069 0.913046 14.0394 0.8978 14.0114 0.901387H13.9522C13.9333 0.901387 13.9127 0.896903 13.893 0.908561ZM42.0587 16.6738C42.0398 16.2667 41.9723 15.8667 41.8745 15.473C41.6836 14.708 41.3727 14.0112 40.8875 13.4148C40.3659 12.757 39.6569 12.3092 38.8741 12.1431C38.2227 12.0032 37.5795 12.0624 36.9478 12.2758C36.2208 12.5197 35.5784 12.9359 35.0068 13.4776C34.1201 14.3161 33.4836 15.3483 33.0435 16.5286C32.6967 17.4446 32.5108 18.4236 32.4958 19.4145C32.4822 20.0257 32.5447 20.636 32.6816 21.2288C32.8683 22.0225 33.1825 22.7444 33.6826 23.3633C34.2338 24.0624 34.9955 24.5244 35.8309 24.6663C36.4609 24.7775 37.0802 24.7022 37.6856 24.4888C38.4998 24.2009 39.1989 23.7058 39.8142 23.0646C40.4071 22.4431 40.8969 21.7142 41.2617 20.9104C41.6275 20.1252 41.8762 19.2815 41.9987 18.411C42.0192 18.2558 42.0365 18.1007 42.0562 17.9464C42.071 17.8756 42.0644 17.8029 42.0809 17.733C42.0883 17.7034 42.0842 17.6756 42.085 17.6451C42.0899 17.6083 42.0743 17.568 42.0957 17.5312V16.9626C42.0628 16.9106 42.0793 16.8532 42.076 16.7976C42.0727 16.7563 42.0825 16.7115 42.0587 16.6738ZM33.4613 7.56479C33.4572 6.43659 33.31 5.42049 32.9637 4.44115C32.703 3.70127 32.3444 3.02507 31.8452 2.44303C31.3081 1.81346 30.6699 1.36325 29.9 1.1507C29.1302 0.93726 28.3735 0.998244 27.63 1.29151C26.9745 1.55158 26.4029 1.95964 25.8946 2.47531C25.0844 3.29681 24.5046 4.28959 24.0909 5.40255C23.8277 6.10925 23.6467 6.84106 23.5439 7.59529C23.4855 8.02217 23.4518 8.45355 23.4436 8.88671C23.4329 9.43226 23.4681 9.97772 23.5489 10.5162C23.7208 11.6427 24.0711 12.6919 24.6962 13.6193C25.0753 14.195 25.5673 14.6714 26.1364 15.0138C26.7695 15.3927 27.4909 15.5599 28.2107 15.4945C28.8736 15.4398 29.4855 15.203 30.0555 14.8345C30.799 14.3547 31.401 13.7071 31.9028 12.9448C32.4877 12.0438 32.9154 11.0329 33.1644 9.9629C33.3055 9.37538 33.3969 8.77498 33.4375 8.16925C33.4556 7.96839 33.4636 7.7666 33.4613 7.56479ZM0.97353 17.3357V17.4666C1.01877 18.5545 1.28607 19.5778 1.71623 20.5535C2.05125 21.3161 2.49237 22.0176 3.02397 22.6332C3.71073 23.4269 4.50771 24.0466 5.45603 24.4179C6.01742 24.6456 6.61543 24.7463 7.21366 24.7139C8.08202 24.6732 8.90795 24.2931 9.54045 23.6431C10.0816 23.0942 10.4378 22.4198 10.6631 21.6611C10.8617 20.9841 10.9508 20.2746 10.9263 19.5643C10.8819 17.9931 10.4271 16.5653 9.6375 15.2587C9.37183 14.8173 9.06536 14.4068 8.7229 14.0336C8.01804 13.2677 7.21201 12.6794 6.25712 12.3449C5.72072 12.1521 5.15498 12.0753 4.59161 12.1189C3.74438 12.1795 2.94383 12.5637 2.33062 13.204C1.75818 13.7932 1.39629 14.5206 1.17833 15.3385C1.05743 15.7896 0.986692 16.2514 0.97271 16.7223V16.8541C0.977047 17.0146 0.977867 17.1752 0.97353 17.3357Z" fill="#656565"/>
</svg>
