<svg width="33" height="44" viewBox="0 0 33 44" fill="none" xmlns="http://www.w3.org/2000/svg">
<path d="M16.5 0.690674C7.71063 0.690674 0.584473 7.93177 0.584473 16.8629C0.584473 20.3796 1.71911 23.6067 3.6051 26.2495C3.63892 26.3128 3.64422 26.3836 3.68269 26.4442L14.293 42.6164C14.7851 43.3664 15.614 43.8165 16.5 43.8165C17.3859 43.8165 18.2148 43.3664 18.7069 42.6164L29.3172 26.4442C29.3563 26.3836 29.361 26.3128 29.3948 26.2495C31.2808 23.6067 32.4154 20.3796 32.4154 16.8629C32.4154 7.93177 25.2893 0.690674 16.5 0.690674ZM16.5 22.2536C13.5702 22.2536 11.1948 19.8399 11.1948 16.8629C11.1948 13.8858 13.5702 11.4721 16.5 11.4721C19.4297 11.4721 21.8051 13.8858 21.8051 16.8629C21.8051 19.8399 19.4297 22.2536 16.5 22.2536Z" fill="#203059"/>
</svg>
