<svg width="31" height="29" viewBox="0 0 31 29" fill="none" xmlns="http://www.w3.org/2000/svg">
<path d="M9.85124 13.1815L6.05362 19.1058L3.52188 20.0932L7.82584 25.2769H19.9782L25.2949 24.0427L26.5607 21.3274L23.5226 16.6373L17.6996 10.4662L15.4211 9.47884L9.85124 13.1815Z" fill="#FBBD08"/>
<path d="M24.4087 16.3293C23.3472 15.7498 22.5623 14.7792 22.226 13.6302C21.802 12.1923 20.9158 10.9288 19.7006 10.0298C18.4854 9.13066 17.0069 8.64453 15.4874 8.64443C13.9678 8.64432 12.4892 9.13026 11.2739 10.0292C10.0586 10.9281 9.17226 12.1915 8.74807 13.6293C8.41194 14.7786 7.62692 15.7496 6.56522 16.3293C5.11523 17.107 4.02406 18.4041 3.51743 19.9524C3.0108 21.5006 3.12748 23.1816 3.84332 24.6474C4.55916 26.1133 5.8194 27.2519 7.36334 27.8278C8.90729 28.4037 10.6168 28.3728 12.1383 27.7415C14.2834 26.8713 16.6905 26.8713 18.8356 27.7415C20.3571 28.3734 22.067 28.4046 23.6113 27.8288C25.1556 27.253 26.4161 26.1143 27.1321 24.6481C27.8481 23.182 27.9646 21.5008 27.4577 19.9523C26.9508 18.4039 25.8591 17.1067 24.4087 16.3293ZM21.3353 24.7807C20.9434 24.7816 20.5555 24.7044 20.1947 24.5537C17.246 23.2975 13.7528 23.3438 10.7987 24.5456C10.7921 24.5482 10.7856 24.5509 10.7791 24.5537C10.087 24.8422 9.30864 24.8571 8.6056 24.5953C7.90256 24.3335 7.32875 23.8151 7.00317 23.1476C6.67759 22.4802 6.62521 21.7148 6.85691 21.0103C7.08861 20.3058 7.58661 19.7162 8.24762 19.3638C8.25276 19.361 8.25804 19.3581 8.26318 19.3553C9.1916 18.8501 10.0099 18.1695 10.6713 17.3526C11.3327 16.5356 11.8242 15.5982 12.1179 14.594C12.3301 13.8752 12.7733 13.2437 13.3809 12.7943C13.9885 12.345 14.7277 12.1021 15.4874 12.1022C16.2471 12.1023 16.9862 12.3453 17.5938 12.7947C19.9419 14.5319 20.0441 17.8945 22.7263 19.3638C25.3465 20.7605 24.2132 24.7801 21.3353 24.7807ZM30.6926 10.3733C30.6926 11.0572 30.4868 11.7257 30.1013 12.2943C29.7157 12.863 29.1676 13.3062 28.5265 13.5679C27.8853 13.8296 27.1797 13.8981 26.499 13.7646C25.8184 13.6312 25.1931 13.3019 24.7024 12.8183C24.2116 12.3347 23.8774 11.7186 23.742 11.0479C23.6066 10.3771 23.6761 9.6819 23.9417 9.05007C24.2073 8.41825 24.6571 7.87822 25.2341 7.49828C25.8112 7.11833 26.4896 6.91554 27.1836 6.91554C27.6444 6.91554 28.1007 7.00497 28.5265 7.17874C28.9522 7.35251 29.339 7.60721 29.6649 7.92829C29.9907 8.24937 30.2492 8.63056 30.4255 9.05007C30.6019 9.46959 30.6926 9.91923 30.6926 10.3733ZM3.79026 13.8311C3.09624 13.8311 2.41781 13.6283 1.84076 13.2483C1.2637 12.8684 0.813947 12.3284 0.548359 11.6965C0.28277 11.0647 0.21328 10.3695 0.348676 9.69873C0.484072 9.02799 0.818272 8.41187 1.30902 7.92829C1.79976 7.44472 2.425 7.1154 3.10568 6.98198C3.78636 6.84856 4.49191 6.91703 5.13309 7.17874C5.77428 7.44045 6.32231 7.88365 6.70789 8.45227C7.09346 9.0209 7.29926 9.68942 7.29926 10.3733C7.29926 10.8274 7.2085 11.277 7.03216 11.6965C6.85581 12.1161 6.59734 12.4972 6.2715 12.8183C5.94566 13.1394 5.55883 13.3941 5.13309 13.5679C4.70736 13.7416 4.25107 13.8311 3.79026 13.8311ZM7.29926 3.45777C7.29926 2.77389 7.50506 2.10536 7.89063 1.53674C8.27621 0.968109 8.82424 0.524919 9.46543 0.263208C10.1066 0.00149822 10.8122 -0.0669772 11.4928 0.0664416C12.1735 0.19986 12.7988 0.529181 13.2895 1.01276C13.7802 1.49634 14.1144 2.11245 14.2498 2.78319C14.3852 3.45393 14.3158 4.14918 14.0502 4.781C13.7846 5.41282 13.3348 5.95285 12.7578 6.3328C12.1807 6.71274 11.5023 6.91554 10.8083 6.91554C10.3475 6.91554 9.89116 6.8261 9.46543 6.65233C9.03969 6.47856 8.65286 6.22387 8.32702 5.90278C8.00118 5.5817 7.74271 5.20052 7.56637 4.781C7.39002 4.36148 7.29926 3.91185 7.29926 3.45777ZM16.6566 3.45777C16.6566 2.77389 16.8624 2.10536 17.248 1.53674C17.6336 0.968109 18.1816 0.524919 18.8228 0.263208C19.464 0.00149822 20.1695 -0.0669772 20.8502 0.0664416C21.5309 0.19986 22.1561 0.529181 22.6469 1.01276C23.1376 1.49634 23.4718 2.11245 23.6072 2.78319C23.7426 3.45393 23.6731 4.14918 23.4075 4.781C23.1419 5.41282 22.6922 5.95285 22.1151 6.3328C21.5381 6.71274 20.8596 6.91554 20.1656 6.91554C19.7048 6.91554 19.2485 6.8261 18.8228 6.65233C18.397 6.47856 18.0102 6.22387 17.6844 5.90278C17.3585 5.5817 17.1001 5.20052 16.9237 4.781C16.7474 4.36148 16.6566 3.91185 16.6566 3.45777Z" fill="#FBBD08"/>
</svg>
