<svg width="17" height="16" viewBox="0 0 17 16" fill="none" xmlns="http://www.w3.org/2000/svg">
<path d="M8.41638 1.41354C10.5113 1.41354 10.7594 1.42139 11.5869 1.45912C12.0845 1.46521 12.5774 1.55658 13.0441 1.72925C13.3825 1.85978 13.6899 2.05972 13.9464 2.31621C14.2029 2.57271 14.4028 2.88007 14.5333 3.21851C14.706 3.68521 14.7974 4.17806 14.8034 4.67564C14.8408 5.50321 14.849 5.7513 14.849 7.8462C14.849 9.9411 14.8412 10.1892 14.8034 11.0168C14.7974 11.5143 14.706 12.0072 14.5333 12.4739C14.4028 12.8123 14.2029 13.1197 13.9464 13.3762C13.6899 13.6327 13.3825 13.8326 13.0441 13.9631C12.5774 14.1358 12.0845 14.2272 11.5869 14.2333C10.7597 14.2706 10.5117 14.2789 8.41638 14.2789C6.32111 14.2789 6.07302 14.271 5.24582 14.2333C4.74824 14.2272 4.25539 14.1358 3.78869 13.9631C3.45025 13.8326 3.14289 13.6327 2.8864 13.3762C2.6299 13.1197 2.42996 12.8123 2.29944 12.4739C2.12676 12.0072 2.0354 11.5143 2.02931 11.0168C1.99194 10.1892 1.98373 9.9411 1.98373 7.8462C1.98373 5.7513 1.99157 5.50321 2.02931 4.67564C2.0354 4.17806 2.12676 3.68521 2.29944 3.21851C2.42996 2.88007 2.6299 2.57271 2.8864 2.31621C3.14289 2.05972 3.45025 1.85978 3.78869 1.72925C4.25539 1.55658 4.74824 1.46521 5.24582 1.45912C6.07339 1.42176 6.32148 1.41354 8.41638 1.41354V1.41354ZM8.41638 -0.000244141C6.28673 -0.000244141 6.01847 0.00872277 5.18156 0.0468322C4.53035 0.0597849 3.88606 0.183085 3.27608 0.411488C2.75282 0.608635 2.27888 0.917583 1.88733 1.31677C1.48778 1.70847 1.17857 2.18268 0.981297 2.70628C0.752894 3.31625 0.629594 3.96054 0.616642 4.61175C0.579279 5.44792 0.570312 5.71618 0.570312 7.84582C0.570312 9.97547 0.579279 10.2437 0.617389 11.0806C0.630342 11.7319 0.753642 12.3761 0.982044 12.9861C1.1791 13.5096 1.48805 13.9838 1.88733 14.3756C2.2791 14.7749 2.7533 15.0839 3.27683 15.2809C3.88681 15.5093 4.5311 15.6326 5.1823 15.6456C6.01922 15.6829 6.28636 15.6926 8.41713 15.6926C10.5479 15.6926 10.815 15.6837 11.6519 15.6456C12.3032 15.6326 12.9474 15.5093 13.5574 15.2809C14.0785 15.0789 14.5516 14.7705 14.9466 14.3752C15.3417 13.9799 15.6498 13.5065 15.8515 12.9854C16.0799 12.3754 16.2032 11.7311 16.2161 11.0799C16.2535 10.2437 16.2624 9.97547 16.2624 7.84582C16.2624 5.71618 16.2535 5.44792 16.2154 4.611C16.2024 3.9598 16.0791 3.3155 15.8507 2.70553C15.6537 2.182 15.3447 1.7078 14.9454 1.31603C14.5537 0.916745 14.0795 0.607792 13.5559 0.41074C12.946 0.182338 12.3017 0.0590378 11.6505 0.046085C10.8143 0.00872282 10.546 -0.000244141 8.41638 -0.000244141Z" fill="white"/>
<path d="M8.41391 3.8208C7.61702 3.8208 6.83803 4.05711 6.17544 4.49983C5.51285 4.94256 4.99642 5.57183 4.69147 6.30806C4.38651 7.04429 4.30672 7.85441 4.46219 8.63599C4.61765 9.41757 5.00139 10.1355 5.56488 10.699C6.12836 11.2625 6.84629 11.6462 7.62786 11.8017C8.40944 11.9571 9.21957 11.8773 9.9558 11.5724C10.692 11.2674 11.3213 10.751 11.764 10.0884C12.2067 9.42582 12.4431 8.64683 12.4431 7.84994C12.4431 6.78135 12.0186 5.75652 11.2629 5.00091C10.5073 4.2453 9.4825 3.8208 8.41391 3.8208ZM8.41391 10.4653C7.89664 10.4653 7.39099 10.3119 6.9609 10.0245C6.5308 9.73715 6.19559 9.32869 5.99764 8.8508C5.79969 8.3729 5.74789 7.84704 5.84881 7.33971C5.94972 6.83238 6.19881 6.36637 6.56457 6.00061C6.93034 5.63484 7.39635 5.38575 7.90368 5.28484C8.41101 5.18393 8.93687 5.23572 9.41476 5.43367C9.89266 5.63162 10.3011 5.96684 10.5885 6.39693C10.8759 6.82702 11.0293 7.33267 11.0293 7.84994C11.0293 8.54358 10.7537 9.2088 10.2632 9.69928C9.77277 10.1898 9.10754 10.4653 8.41391 10.4653V10.4653Z" fill="white"/>
<path d="M12.6163 4.60083C13.1363 4.60083 13.5579 4.17929 13.5579 3.6593C13.5579 3.13931 13.1363 2.71777 12.6163 2.71777C12.0963 2.71777 11.6748 3.13931 11.6748 3.6593C11.6748 4.17929 12.0963 4.60083 12.6163 4.60083Z" fill="white"/>
</svg>
