<svg width="48" height="45" viewBox="0 0 48 45" fill="none" xmlns="http://www.w3.org/2000/svg">
<path d="M33.1787 28.6218L32.0094 29.7842C32.0094 29.7842 29.2304 32.5476 21.6449 25.0049C14.0594 17.4625 16.8384 14.6993 16.8384 14.6993L17.5746 13.9672C19.3885 12.1638 19.5594 9.26838 17.9769 7.15463L14.74 2.83075C12.7814 0.214552 8.99682 -0.131045 6.75194 2.10108L2.72276 6.10739C1.60965 7.21418 0.86373 8.64891 0.954191 10.2405C1.18561 14.3123 3.02788 23.0732 13.3079 33.2948C24.2093 44.1343 34.4381 44.565 38.621 44.1751C39.9441 44.0519 41.0946 43.3781 42.0218 42.456L45.6685 38.8303C48.13 36.3827 47.4359 32.1867 44.2864 30.4747L39.3821 27.8086C37.3142 26.6845 34.7949 27.0146 33.1787 28.6218Z" fill="#203059"/>
</svg>
