<svg width="28" height="28" viewBox="0 0 28 28" fill="none" xmlns="http://www.w3.org/2000/svg">
<path d="M22.0658 21.1478C23.2278 22.9773 23.7754 23.9486 23.7754 24.9618C23.7754 26.9628 22.2893 27.933 20.2872 27.933C19.4047 27.933 18.835 27.9318 17.3953 27.1828C17.3953 27.1828 16.4624 26.3292 14.2793 26.4168C12.0759 26.3297 11.1424 27.1936 11.1424 27.1936C9.70267 27.942 9.15336 27.9341 8.27197 27.9341C6.2699 27.9341 4.78263 26.965 4.78263 24.9629C4.78263 23.9497 5.33194 22.9795 6.49336 21.1489C6.49336 21.1489 8.68891 17.5028 10.5914 15.7876C11.9661 14.5498 13.9704 14.5543 13.9704 14.5543H14.5888C14.5888 14.5543 16.6808 14.5487 17.9695 15.7876C19.8132 17.5651 22.0658 21.1483 22.0658 21.1478ZM9.38813 12.1161C11.4813 12.1161 13.1779 9.47193 13.1779 6.21057C13.1779 2.94921 11.4813 0.305054 9.38813 0.305054C7.29498 0.305054 5.5984 2.94921 5.5984 6.21057C5.5984 9.47193 7.29498 12.1161 9.38813 12.1161ZM5.75623 17.8355C7.29894 17.1232 7.65082 14.5979 6.54145 12.1947C5.43208 9.79156 3.28235 8.42026 1.73964 9.13193C0.196934 9.8436 -0.154376 12.3695 0.954428 14.7727C2.0638 17.1759 4.21352 18.5466 5.75623 17.8355ZM18.1992 12.1161C20.2923 12.1161 21.9895 9.47193 21.9895 6.21057C21.9895 2.94921 20.2923 0.305054 18.1992 0.305054C16.106 0.305054 14.4094 2.94921 14.4094 6.21057C14.4094 9.47193 16.106 12.1161 18.1992 12.1161ZM25.8482 9.13136C24.3049 8.41913 22.1558 9.79042 21.0464 12.1942C19.937 14.5979 20.2889 17.1232 21.8322 17.8355C23.3755 18.5472 25.5246 17.1759 26.634 14.7727C27.7434 12.3695 27.3915 9.8436 25.8482 9.13136Z" fill="#42AFA8"/>
</svg>
